<svg width="592" height="315" viewBox="0 0 592 315" fill="none" xmlns="http://www.w3.org/2000/svg">
<rect width="592" height="315" fill="url(#paint0_linear_1_143)"/>
<path d="M53.44 95.32C51.1787 95.32 49.1307 94.8293 47.296 93.848C45.4827 92.8453 44.0533 91.4693 43.008 89.72C41.984 87.9707 41.472 85.9973 41.472 83.8C41.472 81.6027 41.9947 79.6293 43.04 77.88C44.0853 76.1307 45.5147 74.7653 47.328 73.784C49.1627 72.7813 51.2107 72.28 53.472 72.28C55.3067 72.28 56.9813 72.6 58.496 73.24C60.0107 73.88 61.2907 74.808 62.336 76.024L59.648 78.552C58.0267 76.8027 56.032 75.928 53.664 75.928C52.128 75.928 50.752 76.2693 49.536 76.952C48.32 77.6133 47.3707 78.5413 46.688 79.736C46.0053 80.9307 45.664 82.2853 45.664 83.8C45.664 85.3147 46.0053 86.6693 46.688 87.864C47.3707 89.0587 48.32 89.9973 49.536 90.68C50.752 91.3413 52.128 91.672 53.664 91.672C56.032 91.672 58.0267 90.7867 59.648 89.016L62.336 91.576C61.2907 92.792 60 93.72 58.464 94.36C56.9493 95 55.2747 95.32 53.44 95.32ZM72.8545 88.152H69.7505V95H65.7505V77.912H69.7505V84.824H72.9505L78.0065 77.912H82.2945L76.0865 86.136L82.7105 95H78.0065L72.8545 88.152ZM92.5853 95.224C90.8573 95.224 89.2999 94.8507 87.9133 94.104C86.5266 93.3573 85.4386 92.3227 84.6493 91C83.8813 89.656 83.4973 88.1413 83.4973 86.456C83.4973 84.7707 83.8813 83.2667 84.6493 81.944C85.4386 80.6213 86.5266 79.5867 87.9133 78.84C89.2999 78.0933 90.8573 77.72 92.5853 77.72C94.3346 77.72 95.9026 78.0933 97.2893 78.84C98.6759 79.5867 99.7533 80.6213 100.521 81.944C101.311 83.2667 101.705 84.7707 101.705 86.456C101.705 88.1413 101.311 89.656 100.521 91C99.7533 92.3227 98.6759 93.3573 97.2893 94.104C95.9026 94.8507 94.3346 95.224 92.5853 95.224ZM92.5853 91.8C94.0573 91.8 95.2733 91.3093 96.2333 90.328C97.1933 89.3467 97.6733 88.056 97.6733 86.456C97.6733 84.856 97.1933 83.5653 96.2333 82.584C95.2733 81.6027 94.0573 81.112 92.5853 81.112C91.1133 81.112 89.8973 81.6027 88.9373 82.584C87.9986 83.5653 87.5293 84.856 87.5293 86.456C87.5293 88.056 87.9986 89.3467 88.9373 90.328C89.8973 91.3093 91.1133 91.8 92.5853 91.8ZM120.957 77.912V95H116.957V81.304H110.557L110.397 84.696C110.291 86.9573 110.077 88.856 109.757 90.392C109.459 91.9067 108.936 93.112 108.189 94.008C107.464 94.8827 106.461 95.32 105.181 95.32C104.584 95.32 103.848 95.2027 102.973 94.968L103.165 91.608C103.464 91.672 103.72 91.704 103.933 91.704C104.744 91.704 105.352 91.384 105.757 90.744C106.163 90.0827 106.419 89.304 106.525 88.408C106.653 87.4907 106.76 86.1893 106.845 84.504L107.133 77.912H120.957ZM134.92 83.544C137.096 83.544 138.76 84.0347 139.912 85.016C141.086 85.9973 141.672 87.384 141.672 89.176C141.672 91.0533 141.032 92.504 139.752 93.528C138.472 94.552 136.67 95.0533 134.344 95.032L126.344 95V77.912H130.344V83.512L134.92 83.544ZM133.992 92.088C135.166 92.1093 136.062 91.864 136.68 91.352C137.299 90.84 137.608 90.0933 137.608 89.112C137.608 88.152 137.31 87.448 136.712 87C136.115 86.552 135.208 86.3173 133.992 86.296L130.344 86.264V92.056L133.992 92.088ZM152.292 88.152H149.188V95H145.188V77.912H149.188V84.824H152.388L157.444 77.912H161.732L155.524 86.136L162.148 95H157.444L152.292 88.152ZM172.023 95.224C170.295 95.224 168.737 94.8507 167.351 94.104C165.964 93.3573 164.876 92.3227 164.087 91C163.319 89.656 162.935 88.1413 162.935 86.456C162.935 84.7707 163.319 83.2667 164.087 81.944C164.876 80.6213 165.964 79.5867 167.351 78.84C168.737 78.0933 170.295 77.72 172.023 77.72C173.772 77.72 175.34 78.0933 176.727 78.84C178.113 79.5867 179.191 80.6213 179.959 81.944C180.748 83.2667 181.143 84.7707 181.143 86.456C181.143 88.1413 180.748 89.656 179.959 91C179.191 92.3227 178.113 93.3573 176.727 94.104C175.34 94.8507 173.772 95.224 172.023 95.224ZM172.023 91.8C173.495 91.8 174.711 91.3093 175.671 90.328C176.631 89.3467 177.111 88.056 177.111 86.456C177.111 84.856 176.631 83.5653 175.671 82.584C174.711 81.6027 173.495 81.112 172.023 81.112C170.551 81.112 169.335 81.6027 168.375 82.584C167.436 83.5653 166.967 84.856 166.967 86.456C166.967 88.056 167.436 89.3467 168.375 90.328C169.335 91.3093 170.551 91.8 172.023 91.8ZM201.714 95.224C199.943 95.224 198.354 94.8507 196.946 94.104C195.538 93.3573 194.439 92.3227 193.65 91C192.861 89.656 192.466 88.1413 192.466 86.456C192.466 84.7707 192.861 83.2667 193.65 81.944C194.439 80.6213 195.527 79.5867 196.914 78.84C198.322 78.0933 199.922 77.72 201.714 77.72C203.399 77.72 204.871 78.0613 206.13 78.744C207.41 79.4267 208.37 80.408 209.01 81.688L205.938 83.48C205.447 82.6907 204.829 82.104 204.082 81.72C203.357 81.3147 202.557 81.112 201.682 81.112C200.189 81.112 198.951 81.6027 197.97 82.584C196.989 83.544 196.498 84.8347 196.498 86.456C196.498 88.0773 196.978 89.3787 197.938 90.36C198.919 91.32 200.167 91.8 201.682 91.8C202.557 91.8 203.357 91.608 204.082 91.224C204.829 90.8187 205.447 90.2213 205.938 89.432L209.01 91.224C208.349 92.504 207.378 93.496 206.098 94.2C204.839 94.8827 203.378 95.224 201.714 95.224ZM225.912 81.304H219.928V95H215.928V81.304H209.912V77.912H225.912V81.304ZM235.679 95.224C233.951 95.224 232.394 94.8507 231.007 94.104C229.62 93.3573 228.532 92.3227 227.743 91C226.975 89.656 226.591 88.1413 226.591 86.456C226.591 84.7707 226.975 83.2667 227.743 81.944C228.532 80.6213 229.62 79.5867 231.007 78.84C232.394 78.0933 233.951 77.72 235.679 77.72C237.428 77.72 238.996 78.0933 240.383 78.84C241.77 79.5867 242.847 80.6213 243.615 81.944C244.404 83.2667 244.799 84.7707 244.799 86.456C244.799 88.1413 244.404 89.656 243.615 91C242.847 92.3227 241.77 93.3573 240.383 94.104C238.996 94.8507 237.428 95.224 235.679 95.224ZM235.679 91.8C237.151 91.8 238.367 91.3093 239.327 90.328C240.287 89.3467 240.767 88.056 240.767 86.456C240.767 84.856 240.287 83.5653 239.327 82.584C238.367 81.6027 237.151 81.112 235.679 81.112C234.207 81.112 232.991 81.6027 232.031 82.584C231.092 83.5653 230.623 84.856 230.623 86.456C230.623 88.056 231.092 89.3467 232.031 90.328C232.991 91.3093 234.207 91.8 235.679 91.8ZM248.751 77.912H252.751V89.176L262.191 77.912H265.839V95H261.839V83.736L252.431 95H248.751V77.912ZM284.755 81.304H278.771V95H274.771V81.304H268.755V77.912H284.755V81.304ZM50.304 134.224C48.576 134.224 47.0187 133.851 45.632 133.104C44.2453 132.357 43.1573 131.323 42.368 130C41.6 128.656 41.216 127.141 41.216 125.456C41.216 123.771 41.6 122.267 42.368 120.944C43.1573 119.621 44.2453 118.587 45.632 117.84C47.0187 117.093 48.576 116.72 50.304 116.72C52.0533 116.72 53.6213 117.093 55.008 117.84C56.3947 118.587 57.472 119.621 58.24 120.944C59.0293 122.267 59.424 123.771 59.424 125.456C59.424 127.141 59.0293 128.656 58.24 130C57.472 131.323 56.3947 132.357 55.008 133.104C53.6213 133.851 52.0533 134.224 50.304 134.224ZM50.304 130.8C51.776 130.8 52.992 130.309 53.952 129.328C54.912 128.347 55.392 127.056 55.392 125.456C55.392 123.856 54.912 122.565 53.952 121.584C52.992 120.603 51.776 120.112 50.304 120.112C48.832 120.112 47.616 120.603 46.656 121.584C45.7173 122.565 45.248 123.856 45.248 125.456C45.248 127.056 45.7173 128.347 46.656 129.328C47.616 130.309 48.832 130.8 50.304 130.8ZM63.3755 116.912H67.3755V123.856H75.9835V116.912H79.9835V134H75.9835V127.248H67.3755V134H63.3755V116.912ZM100.832 116.912V134H96.8323V120.304H90.4323L90.2723 123.696C90.1656 125.957 89.9523 127.856 89.6323 129.392C89.3336 130.907 88.8109 132.112 88.0643 133.008C87.3389 133.883 86.3363 134.32 85.0563 134.32C84.4589 134.32 83.7229 134.203 82.8483 133.968L83.0403 130.608C83.3389 130.672 83.5949 130.704 83.8083 130.704C84.6189 130.704 85.2269 130.384 85.6323 129.744C86.0376 129.083 86.2936 128.304 86.4003 127.408C86.5283 126.491 86.6349 125.189 86.7203 123.504L87.0083 116.912H100.832ZM112.587 116.72C115.105 116.72 117.025 117.328 118.347 118.544C119.691 119.739 120.363 121.552 120.363 123.984V134H116.587V131.92C116.097 132.667 115.393 133.243 114.475 133.648C113.579 134.032 112.491 134.224 111.211 134.224C109.931 134.224 108.811 134.011 107.851 133.584C106.891 133.136 106.145 132.528 105.611 131.76C105.099 130.971 104.843 130.085 104.843 129.104C104.843 127.568 105.409 126.341 106.539 125.424C107.691 124.485 109.494 124.016 111.947 124.016H116.363V123.76C116.363 122.565 116.001 121.648 115.275 121.008C114.571 120.368 113.515 120.048 112.107 120.048C111.147 120.048 110.198 120.197 109.259 120.496C108.342 120.795 107.563 121.211 106.923 121.744L105.355 118.832C106.251 118.149 107.329 117.627 108.587 117.264C109.846 116.901 111.179 116.72 112.587 116.72ZM112.043 131.312C113.046 131.312 113.931 131.088 114.699 130.64C115.489 130.171 116.043 129.509 116.363 128.656V126.672H112.235C109.931 126.672 108.779 127.429 108.779 128.944C108.779 129.669 109.067 130.245 109.643 130.672C110.219 131.099 111.019 131.312 112.043 131.312ZM125.313 116.912H129.313V128.176L138.753 116.912H142.401V134H138.401V122.736L128.993 134H125.313V116.912ZM133.601 114.896C131.873 114.896 130.55 114.501 129.633 113.712C128.737 112.901 128.278 111.728 128.257 110.192H130.913C130.934 110.96 131.169 111.568 131.617 112.016C132.086 112.464 132.737 112.688 133.569 112.688C134.38 112.688 135.02 112.464 135.489 112.016C135.98 111.568 136.236 110.96 136.257 110.192H138.977C138.956 111.728 138.486 112.901 137.569 113.712C136.652 114.501 135.329 114.896 133.601 114.896ZM147.782 116.912H151.782V123.856H160.39V116.912H164.39V134H160.39V127.248H151.782V134H147.782V116.912ZM168.823 123.44H177.623V126.768H168.823V123.44ZM189.167 127.152H186.063V134H182.063V116.912H186.063V123.824H189.263L194.319 116.912H198.607L192.399 125.136L199.023 134H194.319L189.167 127.152ZM208.898 134.224C207.17 134.224 205.612 133.851 204.226 133.104C202.839 132.357 201.751 131.323 200.962 130C200.194 128.656 199.81 127.141 199.81 125.456C199.81 123.771 200.194 122.267 200.962 120.944C201.751 119.621 202.839 118.587 204.226 117.84C205.612 117.093 207.17 116.72 208.898 116.72C210.647 116.72 212.215 117.093 213.602 117.84C214.988 118.587 216.066 119.621 216.834 120.944C217.623 122.267 218.018 123.771 218.018 125.456C218.018 127.141 217.623 128.656 216.834 130C216.066 131.323 214.988 132.357 213.602 133.104C212.215 133.851 210.647 134.224 208.898 134.224ZM208.898 130.8C210.37 130.8 211.586 130.309 212.546 129.328C213.506 128.347 213.986 127.056 213.986 125.456C213.986 123.856 213.506 122.565 212.546 121.584C211.586 120.603 210.37 120.112 208.898 120.112C207.426 120.112 206.21 120.603 205.25 121.584C204.311 122.565 203.842 123.856 203.842 125.456C203.842 127.056 204.311 128.347 205.25 129.328C206.21 130.309 207.426 130.8 208.898 130.8ZM221.969 116.912H225.969V123.856H234.577V116.912H238.577V134H234.577V127.248H225.969V134H221.969V116.912ZM251.714 134.224C249.943 134.224 248.354 133.851 246.946 133.104C245.538 132.357 244.439 131.323 243.65 130C242.861 128.656 242.466 127.141 242.466 125.456C242.466 123.771 242.861 122.267 243.65 120.944C244.439 119.621 245.527 118.587 246.914 117.84C248.322 117.093 249.922 116.72 251.714 116.72C253.399 116.72 254.871 117.061 256.13 117.744C257.41 118.427 258.37 119.408 259.01 120.688L255.938 122.48C255.447 121.691 254.829 121.104 254.082 120.72C253.357 120.315 252.557 120.112 251.682 120.112C250.189 120.112 248.951 120.603 247.97 121.584C246.989 122.544 246.498 123.835 246.498 125.456C246.498 127.077 246.978 128.379 247.938 129.36C248.919 130.32 250.167 130.8 251.682 130.8C252.557 130.8 253.357 130.608 254.082 130.224C254.829 129.819 255.447 129.221 255.938 128.432L259.01 130.224C258.349 131.504 257.378 132.496 256.098 133.2C254.839 133.883 253.378 134.224 251.714 134.224ZM278.441 116.912L270.441 135.376C269.694 137.232 268.788 138.533 267.721 139.28C266.654 140.048 265.364 140.432 263.849 140.432C262.996 140.432 262.153 140.293 261.321 140.016C260.489 139.739 259.806 139.355 259.273 138.864L260.873 135.92C261.257 136.283 261.705 136.571 262.217 136.784C262.75 136.997 263.284 137.104 263.817 137.104C264.521 137.104 265.097 136.923 265.545 136.56C266.014 136.197 266.441 135.589 266.825 134.736L267.113 134.064L259.657 116.912H263.817L269.193 129.552L274.601 116.912H278.441ZM295.645 116.912V134H291.645V120.304H285.245L285.085 123.696C284.978 125.957 284.765 127.856 284.445 129.392C284.146 130.907 283.623 132.112 282.877 133.008C282.151 133.883 281.149 134.32 279.869 134.32C279.271 134.32 278.535 134.203 277.661 133.968L277.853 130.608C278.151 130.672 278.407 130.704 278.621 130.704C279.431 130.704 280.039 130.384 280.445 129.744C280.85 129.083 281.106 128.304 281.213 127.408C281.341 126.491 281.447 125.189 281.533 123.504L281.821 116.912H295.645ZM309.608 122.544C311.784 122.544 313.448 123.035 314.6 124.016C315.773 124.997 316.36 126.384 316.36 128.176C316.36 130.053 315.72 131.504 314.44 132.528C313.16 133.552 311.357 134.053 309.032 134.032L301.032 134V116.912H305.032V122.512L309.608 122.544ZM308.68 131.088C309.853 131.109 310.749 130.864 311.368 130.352C311.986 129.84 312.296 129.093 312.296 128.112C312.296 127.152 311.997 126.448 311.4 126C310.802 125.552 309.896 125.317 308.68 125.296L305.032 125.264V131.056L308.68 131.088ZM331.818 120.304H325.834V134H321.834V120.304H315.818V116.912H331.818V120.304ZM341.087 116.72C343.605 116.72 345.525 117.328 346.847 118.544C348.191 119.739 348.863 121.552 348.863 123.984V134H345.087V131.92C344.597 132.667 343.893 133.243 342.975 133.648C342.079 134.032 340.991 134.224 339.711 134.224C338.431 134.224 337.311 134.011 336.351 133.584C335.391 133.136 334.645 132.528 334.111 131.76C333.599 130.971 333.343 130.085 333.343 129.104C333.343 127.568 333.909 126.341 335.039 125.424C336.191 124.485 337.994 124.016 340.447 124.016H344.863V123.76C344.863 122.565 344.501 121.648 343.775 121.008C343.071 120.368 342.015 120.048 340.607 120.048C339.647 120.048 338.698 120.197 337.759 120.496C336.842 120.795 336.063 121.211 335.423 121.744L333.855 118.832C334.751 118.149 335.829 117.627 337.087 117.264C338.346 116.901 339.679 116.72 341.087 116.72ZM340.543 131.312C341.546 131.312 342.431 131.088 343.199 130.64C343.989 130.171 344.543 129.509 344.863 128.656V126.672H340.735C338.431 126.672 337.279 127.429 337.279 128.944C337.279 129.669 337.567 130.245 338.143 130.672C338.719 131.099 339.519 131.312 340.543 131.312ZM372.565 130.608V137.936H368.821V134H353.813V116.912H357.813V130.608H365.973V116.912H369.973V130.608H372.565ZM376.126 116.912H380.126V128.176L389.566 116.912H393.214V134H389.214V122.736L379.806 134H376.126V116.912ZM413.026 116.912V134H409.442V128.848H404.93L401.442 134H397.154L401.186 128.304C399.949 127.877 399 127.227 398.338 126.352C397.698 125.456 397.378 124.357 397.378 123.056C397.378 121.093 398.072 119.579 399.458 118.512C400.845 117.445 402.754 116.912 405.186 116.912H413.026ZM405.314 120.272C402.733 120.272 401.442 121.243 401.442 123.184C401.442 125.104 402.69 126.064 405.186 126.064H409.442V120.272H405.314ZM50.464 173.224C48.6933 173.224 47.104 172.851 45.696 172.104C44.288 171.357 43.1893 170.323 42.4 169C41.6107 167.656 41.216 166.141 41.216 164.456C41.216 162.771 41.6107 161.267 42.4 159.944C43.1893 158.621 44.2773 157.587 45.664 156.84C47.072 156.093 48.672 155.72 50.464 155.72C52.1493 155.72 53.6213 156.061 54.88 156.744C56.16 157.427 57.12 158.408 57.76 159.688L54.688 161.48C54.1973 160.691 53.5787 160.104 52.832 159.72C52.1067 159.315 51.3067 159.112 50.432 159.112C48.9387 159.112 47.7013 159.603 46.72 160.584C45.7387 161.544 45.248 162.835 45.248 164.456C45.248 166.077 45.728 167.379 46.688 168.36C47.6693 169.32 48.9173 169.8 50.432 169.8C51.3067 169.8 52.1067 169.608 52.832 169.224C53.5787 168.819 54.1973 168.221 54.688 167.432L57.76 169.224C57.0987 170.504 56.128 171.496 54.848 172.2C53.5893 172.883 52.128 173.224 50.464 173.224ZM83.6615 159.304H77.6775V173H73.6775V159.304H67.6615V155.912H83.6615V159.304ZM101.813 164.552C101.813 164.829 101.792 165.224 101.749 165.736H88.341C88.5757 166.995 89.1837 167.997 90.165 168.744C91.1677 169.469 92.405 169.832 93.877 169.832C95.7543 169.832 97.301 169.213 98.517 167.976L100.661 170.44C99.893 171.357 98.9223 172.051 97.749 172.52C96.5757 172.989 95.253 173.224 93.781 173.224C91.9037 173.224 90.2503 172.851 88.821 172.104C87.3917 171.357 86.2823 170.323 85.493 169C84.725 167.656 84.341 166.141 84.341 164.456C84.341 162.792 84.7143 161.299 85.461 159.976C86.229 158.632 87.285 157.587 88.629 156.84C89.973 156.093 91.4877 155.72 93.173 155.72C94.837 155.72 96.3197 156.093 97.621 156.84C98.9437 157.565 99.9677 158.6 100.693 159.944C101.44 161.267 101.813 162.803 101.813 164.552ZM93.173 158.92C91.893 158.92 90.805 159.304 89.909 160.072C89.0343 160.819 88.501 161.821 88.309 163.08H98.005C97.8343 161.843 97.3117 160.84 96.437 160.072C95.5623 159.304 94.4743 158.92 93.173 158.92ZM115.66 155.72C117.324 155.72 118.807 156.083 120.108 156.808C121.431 157.533 122.465 158.557 123.212 159.88C123.959 161.203 124.332 162.728 124.332 164.456C124.332 166.184 123.959 167.72 123.212 169.064C122.465 170.387 121.431 171.411 120.108 172.136C118.807 172.861 117.324 173.224 115.66 173.224C113.356 173.224 111.532 172.456 110.188 170.92V179.208H106.188V155.912H109.996V158.152C110.657 157.341 111.468 156.733 112.428 156.328C113.409 155.923 114.487 155.72 115.66 155.72ZM115.212 169.8C116.684 169.8 117.889 169.309 118.828 168.328C119.788 167.347 120.268 166.056 120.268 164.456C120.268 162.856 119.788 161.565 118.828 160.584C117.889 159.603 116.684 159.112 115.212 159.112C114.252 159.112 113.388 159.336 112.62 159.784C111.852 160.211 111.244 160.829 110.796 161.64C110.348 162.451 110.124 163.389 110.124 164.456C110.124 165.523 110.348 166.461 110.796 167.272C111.244 168.083 111.852 168.712 112.62 169.16C113.388 169.587 114.252 169.8 115.212 169.8ZM134.462 155.72C136.98 155.72 138.9 156.328 140.222 157.544C141.566 158.739 142.238 160.552 142.238 162.984V173H138.462V170.92C137.972 171.667 137.268 172.243 136.35 172.648C135.454 173.032 134.366 173.224 133.086 173.224C131.806 173.224 130.686 173.011 129.726 172.584C128.766 172.136 128.02 171.528 127.486 170.76C126.974 169.971 126.718 169.085 126.718 168.104C126.718 166.568 127.284 165.341 128.414 164.424C129.566 163.485 131.369 163.016 133.822 163.016H138.238V162.76C138.238 161.565 137.876 160.648 137.15 160.008C136.446 159.368 135.39 159.048 133.982 159.048C133.022 159.048 132.073 159.197 131.134 159.496C130.217 159.795 129.438 160.211 128.798 160.744L127.23 157.832C128.126 157.149 129.204 156.627 130.462 156.264C131.721 155.901 133.054 155.72 134.462 155.72ZM133.918 170.312C134.921 170.312 135.806 170.088 136.574 169.64C137.364 169.171 137.918 168.509 138.238 167.656V165.672H134.11C131.806 165.672 130.654 166.429 130.654 167.944C130.654 168.669 130.942 169.245 131.518 169.672C132.094 170.099 132.894 170.312 133.918 170.312ZM163.572 155.912V173H159.604V159.304H151.188V173H147.188V155.912H163.572ZM184.969 164.552C184.969 164.829 184.948 165.224 184.905 165.736H171.497C171.732 166.995 172.34 167.997 173.321 168.744C174.324 169.469 175.561 169.832 177.033 169.832C178.911 169.832 180.457 169.213 181.673 167.976L183.817 170.44C183.049 171.357 182.079 172.051 180.905 172.52C179.732 172.989 178.409 173.224 176.937 173.224C175.06 173.224 173.407 172.851 171.977 172.104C170.548 171.357 169.439 170.323 168.649 169C167.881 167.656 167.497 166.141 167.497 164.456C167.497 162.792 167.871 161.299 168.617 159.976C169.385 158.632 170.441 157.587 171.785 156.84C173.129 156.093 174.644 155.72 176.329 155.72C177.993 155.72 179.476 156.093 180.777 156.84C182.1 157.565 183.124 158.6 183.849 159.944C184.596 161.267 184.969 162.803 184.969 164.552ZM176.329 158.92C175.049 158.92 173.961 159.304 173.065 160.072C172.191 160.819 171.657 161.821 171.465 163.08H181.161C180.991 161.843 180.468 160.84 179.593 160.072C178.719 159.304 177.631 158.92 176.329 158.92ZM201.728 164.104C203.84 164.744 204.896 166.109 204.896 168.2C204.896 169.736 204.32 170.92 203.168 171.752C202.016 172.584 200.31 173 198.048 173H189.344V155.912H197.696C199.787 155.912 201.419 156.296 202.592 157.064C203.766 157.832 204.352 158.92 204.352 160.328C204.352 161.203 204.118 161.96 203.648 162.6C203.2 163.24 202.56 163.741 201.728 164.104ZM193.152 163.048H197.344C199.414 163.048 200.448 162.333 200.448 160.904C200.448 159.517 199.414 158.824 197.344 158.824H193.152V163.048ZM197.728 170.088C199.926 170.088 201.024 169.373 201.024 167.944C201.024 167.197 200.768 166.643 200.256 166.28C199.744 165.896 198.944 165.704 197.856 165.704H193.152V170.088H197.728ZM222.693 159.304H216.709V173H212.709V159.304H206.693V155.912H222.693V159.304ZM232.46 173.224C230.732 173.224 229.175 172.851 227.788 172.104C226.402 171.357 225.314 170.323 224.524 169C223.756 167.656 223.372 166.141 223.372 164.456C223.372 162.771 223.756 161.267 224.524 159.944C225.314 158.621 226.402 157.587 227.788 156.84C229.175 156.093 230.732 155.72 232.46 155.72C234.21 155.72 235.778 156.093 237.164 156.84C238.551 157.587 239.628 158.621 240.396 159.944C241.186 161.267 241.58 162.771 241.58 164.456C241.58 166.141 241.186 167.656 240.396 169C239.628 170.323 238.551 171.357 237.164 172.104C235.778 172.851 234.21 173.224 232.46 173.224ZM232.46 169.8C233.932 169.8 235.148 169.309 236.108 168.328C237.068 167.347 237.548 166.056 237.548 164.456C237.548 162.856 237.068 161.565 236.108 160.584C235.148 159.603 233.932 159.112 232.46 159.112C230.988 159.112 229.772 159.603 228.812 160.584C227.874 161.565 227.404 162.856 227.404 164.456C227.404 166.056 227.874 167.347 228.812 168.328C229.772 169.309 230.988 169.8 232.46 169.8ZM262.332 173V161.672L256.572 171.208H254.844L249.18 161.64V173H245.532V155.912H249.724L255.804 166.6L262.172 155.912H265.916L265.948 173H262.332ZM276.354 165.576C276.354 164.424 276.61 163.475 277.122 162.728C277.655 161.96 278.423 161.128 279.426 160.232C280.194 159.549 280.759 158.963 281.122 158.472C281.506 157.96 281.698 157.384 281.698 156.744C281.698 155.848 281.335 155.123 280.61 154.568C279.885 154.013 278.914 153.736 277.698 153.736C275.394 153.736 273.655 154.557 272.482 156.2L269.378 154.184C270.295 152.925 271.479 151.965 272.93 151.304C274.381 150.621 276.087 150.28 278.05 150.28C280.439 150.28 282.338 150.803 283.746 151.848C285.175 152.872 285.89 154.291 285.89 156.104C285.89 156.979 285.741 157.747 285.442 158.408C285.165 159.069 284.823 159.635 284.418 160.104C284.013 160.552 283.479 161.075 282.818 161.672C282.007 162.397 281.399 163.037 280.994 163.592C280.61 164.147 280.418 164.808 280.418 165.576H276.354ZM278.402 173.224C277.655 173.224 277.037 172.989 276.546 172.52C276.077 172.029 275.842 171.432 275.842 170.728C275.842 170.024 276.077 169.437 276.546 168.968C277.037 168.499 277.655 168.264 278.402 168.264C279.127 168.264 279.725 168.499 280.194 168.968C280.685 169.437 280.93 170.024 280.93 170.728C280.93 171.432 280.685 172.029 280.194 172.52C279.725 172.989 279.127 173.224 278.402 173.224Z" fill="white"/>
<path d="M270.707 216.707C271.098 216.317 271.098 215.683 270.707 215.293L264.343 208.929C263.953 208.538 263.319 208.538 262.929 208.929C262.538 209.319 262.538 209.953 262.929 210.343L268.586 216L262.929 221.657C262.538 222.047 262.538 222.681 262.929 223.071C263.319 223.462 263.953 223.462 264.343 223.071L270.707 216.707ZM40 217H270V215H40V217Z" fill="white"/>
<defs>
<linearGradient id="paint0_linear_1_143" x1="296" y1="0" x2="296" y2="315" gradientUnits="userSpaceOnUse">
<stop stop-opacity="0"/>
<stop offset="1" stop-color="#333333"/>
</linearGradient>
</defs>
</svg>
